<svg xmlns="http://www.w3.org/2000/svg" xmlns:xlink="http://www.w3.org/1999/xlink" viewBox="0 0 85 85.03"><defs><linearGradient id="linear-gradient" x1="14.57" y1="90.9" x2="70.43" y2="-5.84" gradientUnits="userSpaceOnUse"><stop offset="0" stop-color="#6ecc82"/><stop offset="0.57" stop-color="#4ba86b"/><stop offset="1" stop-color="#34915c"/></linearGradient><linearGradient id="linear-gradient-2" x1="42.5" x2="42.5" y2="85.03" gradientUnits="userSpaceOnUse"><stop offset="0" stop-color="#6ecc82"/><stop offset="0.4" stop-color="#50ad6e"/><stop offset="0.76" stop-color="#3b9961"/><stop offset="1" stop-color="#34915c"/></linearGradient><linearGradient id="linear-gradient-3" x1="42.5" y1="24.95" x2="42.5" y2="84.03" gradientUnits="userSpaceOnUse"><stop offset="0" stop-color="#6ecc82"/><stop offset="0.25" stop-color="#66c47d"/><stop offset="0.63" stop-color="#4fad6e"/><stop offset="1" stop-color="#34915c"/></linearGradient><linearGradient id="New_Gradient_Swatch_copy" x1="42.5" y1="24.87" x2="42.5" y2="85.03" gradientUnits="userSpaceOnUse"><stop offset="0" stop-color="#6ecc82"/><stop offset="0.45" stop-color="#6cca81"/><stop offset="0.64" stop-color="#65c37c"/><stop offset="0.79" stop-color="#58b674"/><stop offset="0.91" stop-color="#47a468"/><stop offset="1" stop-color="#34915c"/></linearGradient></defs><title>DnD-logo</title><g id="Layer_2" data-name="Layer 2"><g id="Title"><rect y="0.03" width="85" height="85" rx="6" ry="6" fill="url(#linear-gradient)"/><path d="M0,6V79a6,6,0,0,0,6,6H79a6,6,0,0,0,6-6V62.57C59.86,77,44,54,38,28,31.06-2,6,0,6,0A6,6,0,0,0,0,6Z" fill="url(#linear-gradient-2)"/><path d="M6,84H79a6,6,0,0,0,6-6V25C74.13,52,51,67,37,70c-16.42,3.55-28.56-.39-37-5.86V78A6,6,0,0,0,6,84Z" fill="url(#linear-gradient-3)"/><path d="M6,85H79a6,6,0,0,0,6-6V66.78C57.89,87.19,39.66,61,33,49,24.17,33.11,10.71,26.79,0,24.87V79A6,6,0,0,0,6,85Z" fill="url(#New_Gradient_Swatch_copy)"/><path d="M42.93,18.55H24.57A2.53,2.53,0,0,0,22,21.08V63.22a2.53,2.53,0,0,0,2.53,2.53H43.4A23.6,23.6,0,0,0,67,42.61C67.25,29.38,56.17,18.55,42.93,18.55Z" fill="#fff"/></g></g></svg>